<?xml version="1.0" encoding="UTF-8" standalone="no" ?>
<!DOCTYPE svg PUBLIC "-//W3C//DTD SVG 1.1//EN" "http://www.w3.org/Graphics/SVG/1.1/DTD/svg11.dtd">
<svg xmlns="http://www.w3.org/2000/svg" xmlns:xlink="http://www.w3.org/1999/xlink" version="1.1" width="400" height="400" viewBox="0 0 400 400" xml:space="preserve">
<desc>Created with Fabric.js 3.6.2</desc>
<defs>
</defs>
<g transform="matrix(0.03 0 0 0.03 200 200)" id="Layer_x0020_1"  >
<rect style="stroke: none; stroke-width: 1; stroke-dasharray: none; stroke-linecap: butt; stroke-dashoffset: 0; stroke-linejoin: miter; stroke-miterlimit: 4; fill: none; fill-rule: evenodd; opacity: 1;"  x="-3815" y="-3815" rx="0" ry="0" width="7630" height="7630" />
</g>
<g transform="matrix(0.03 0 0 0.03 200 200)" id="_799082544"  >
<path style="stroke: none; stroke-width: 1; stroke-dasharray: none; stroke-linecap: butt; stroke-dashoffset: 0; stroke-linejoin: miter; stroke-miterlimit: 4; fill: rgb(0,0,0); fill-rule: nonzero; opacity: 1;"  transform=" translate(-3815, -3815)" d="M 5270 4596 c 0 377 -306 683 -683 683 l -1544 0 c -377 0 -684 -306 -684 -683 l 0 -1544 c 0 -378 307 -684 684 -684 l 1544 0 c 377 0 683 306 683 684 l 0 1544 z m -701 -2565 l -1508 0 c -569 0 -1030 461 -1030 1030 l 0 1508 c 0 569 461 1030 1030 1030 l 1508 0 c 569 0 1030 -461 1030 -1030 l 0 -1508 c 0 -569 -461 -1030 -1030 -1030 z" stroke-linecap="round" />
</g>
<g transform="matrix(0.03 0 0 0.03 200 200.24)" id="_799082544"  >
<path style="stroke: none; stroke-width: 1; stroke-dasharray: none; stroke-linecap: butt; stroke-dashoffset: 0; stroke-linejoin: miter; stroke-miterlimit: 4; fill: rgb(0,0,0); fill-rule: nonzero; opacity: 1;"  transform=" translate(-3815, -3824)" d="M 3815 4424 c -332 0 -600 -269 -600 -600 c 0 -332 268 -600 600 -600 c 331 0 600 268 600 600 c 0 331 -269 600 -600 600 z m 0 -1526 c -512 0 -926 414 -926 926 c 0 511 414 926 926 926 c 511 0 926 -415 926 -926 c 0 -512 -415 -926 -926 -926 z" stroke-linecap="round" />
</g>
<g transform="matrix(0.03 0 0 0.03 225.07 175.03)" id="_799082544"  >
<path style="stroke: none; stroke-width: 1; stroke-dasharray: none; stroke-linecap: butt; stroke-dashoffset: 0; stroke-linejoin: miter; stroke-miterlimit: 4; fill: rgb(0,0,0); fill-rule: nonzero; opacity: 1;"  transform=" translate(-4771.5, -2862.5)" d="M 4772 2647 c -119 0 -216 97 -216 216 c 0 119 97 215 216 215 c 119 0 215 -96 215 -215 c 0 -119 -96 -216 -215 -216 z" stroke-linecap="round" />
</g>
</svg>