<?xml version="1.0" encoding="UTF-8" standalone="no" ?>
<!DOCTYPE svg PUBLIC "-//W3C//DTD SVG 1.1//EN" "http://www.w3.org/Graphics/SVG/1.1/DTD/svg11.dtd">
<svg xmlns="http://www.w3.org/2000/svg" xmlns:xlink="http://www.w3.org/1999/xlink" version="1.1" width="400" height="400" viewBox="0 0 400 400" xml:space="preserve">
<desc>Created with Fabric.js 3.6.2</desc>
<defs>
</defs>
<g transform="matrix(6.25 0 0 6.25 200 200)" id="twitter"  >
<path style="stroke: none; stroke-width: 1; stroke-dasharray: none; stroke-linecap: butt; stroke-dashoffset: 0; stroke-linejoin: miter; stroke-miterlimit: 4; fill: rgb(0,0,0); fill-rule: nonzero; opacity: 1;"  transform=" translate(-16, -16.95)" d="M 2 4 C 6 8 10 12 15 11 A 6 6 0 0 1 22 4 A 6 6 0 0 1 26 6 A 8 8 0 0 0 31 4 A 8 8 0 0 1 28 8 A 8 8 0 0 0 32 7 A 8 8 0 0 1 28 11 A 18 18 0 0 1 10 30 A 18 18 0 0 1 0 27 A 12 12 0 0 0 8 24 A 8 8 0 0 1 3 20 A 8 8 0 0 0 6 19.5 A 8 8 0 0 1 0 12 A 8 8 0 0 0 3 13 A 8 8 0 0 1 2 4" stroke-linecap="round" />
</g>
</svg>